<svg height="476pt" viewBox="-34 0 476 476.64" width="476pt" xmlns="http://www.w3.org/2000/svg"><path d="m204.25 0c112.429688 0 203.929688 87.308594 203.929688 194.960938 0 151.308593-203.929688 281.679687-203.929688 281.679687s-203.929688-130.371094-203.929688-281.679687c0-107.652344 91.5-194.960938 203.929688-194.960938zm148.890625 200.328125c-.007813-82.226563-66.667969-148.882813-148.898437-148.878906-82.226563.003906-148.882813 66.664062-148.882813 148.894531.003906 82.226562 66.664063 148.886719 148.890625 148.886719 82.234375 0 148.894531-66.667969 148.890625-148.902344zm0 0" fill="#00efd1"/><path d="m204.25 51.441406c82.238281-.007812 148.90625 66.65625 148.910156 148.894532 0 82.238281-66.664062 148.90625-148.902344 148.902343-82.238281 0-148.902343-66.671875-148.898437-148.910156 0-82.226563 66.660156-148.886719 148.890625-148.886719zm84.921875 194.957032v-91.917969c0-7.5-5.8125-13.589844-12.972656-13.589844h-38.890625v-10.652344c0-7.507812-5.796875-13.589843-12.957032-13.589843h-40.203124c-7.160157 0-12.957032 6.082031-12.957032 13.589843v10.652344h-38.890625c-7.160156 0-12.972656 6.089844-12.972656 13.589844v91.917969c0 7.511718 5.8125 13.589843 12.972656 13.589843h143.898438c7.160156 0 12.972656-6.078125 12.972656-13.589843zm0 0" fill="#fedb41"/><path d="m289.171875 186.199219v14.878906c0 7.511719-5.8125 13.601563-12.972656 13.601563h-143.898438c-7.160156 0-12.972656-6.089844-12.972656-13.601563v-46.597656c0-7.5 5.8125-13.589844 12.972656-13.589844h143.898438c7.160156 0 12.972656 6.089844 12.972656 13.589844zm0 0" fill="#00acea"/><path d="m289.171875 201.078125v45.320313c0 7.511718-5.8125 13.589843-12.972656 13.589843h-143.898438c-7.160156 0-12.972656-6.078125-12.972656-13.589843v-45.320313c0 7.511719 5.8125 13.601563 12.972656 13.601563h143.898438c7.160156 0 12.972656-6.089844 12.972656-13.601563zm0 0" fill="#40d7ff"/><path d="m237.308594 130.238281v10.652344h-66.117188v-10.652344c0-7.507812 5.796875-13.589843 12.957032-13.589843h40.203124c7.160157 0 12.957032 6.082031 12.957032 13.589843zm0 0" fill="#fedb41"/><g fill="#f4b844"><path d="m245.308594 140.890625h-16v-10.652344c0-3.082031-2.222656-5.589843-4.957032-5.589843h-40.203124c-2.734376 0-4.957032 2.507812-4.957032 5.589843v10.652344h-16v-10.652344c0-11.898437 9.398438-21.589843 20.957032-21.589843h40.203124c11.554688 0 20.957032 9.6875 20.957032 21.589843zm0 0"/><path d="m217.25 184.320312h-26c-4.417969 0-8-3.582031-8-8 0-4.417968 3.582031-8 8-8h26c4.417969 0 8 3.582032 8 8 0 4.417969-3.582031 8-8 8zm0 0"/></g></svg>