<!--?xml version="1.0" encoding="utf-8"?-->
<!-- Generator: Adobe Illustrator 19.1.1, SVG Export Plug-In . SVG Version: 6.00 Build 0)  -->
<svg version="1.1" id="_x31_0" xmlns="http://www.w3.org/2000/svg" xmlns:xlink="http://www.w3.org/1999/xlink" x="0px" y="0px" viewBox="0 0 512 512" style="width: 256px; height: 256px; opacity: 1;" xml:space="preserve">
<style type="text/css">
	.st0{fill:#374149;}
</style>
<g>
	<path class="st0" d="M494.8,178.658c-11.774-10.992-25.633-16.555-40.144-15.946c-4.696,0.215-9.126,1-13.297,2.215
		C412.464,90.717,349.332,49.002,257.215,45.311L256,45.268l-1.215,0.043C162.668,49.002,99.536,90.717,70.598,164.885
		c-4.172-1.172-8.602-1.957-13.25-2.172c-14.515-0.61-28.374,4.954-40.148,15.946c-25.422,23.812-20.598,80.558,0.996,108.625
		c10.473,13.554,23.855,20.465,38.457,20.465c0.215,0,0.39,0,0.606-0.043c7.519,35.152,24.55,67.042,50.445,93.898
		c38.715,40.191,95.461,65.129,148.121,65.129h0.352c52.617,0,109.406-24.938,148.121-65.129
		c14.937-15.493,26.824-32.703,35.738-51.207c6.606-13.492,11.75-27.699,15.274-42.652c0.016,0,0.027,0.004,0.043,0.004
		c14.598,0,27.98-6.91,38.453-20.465C515.398,259.217,520.222,202.47,494.8,178.658z M469.687,268.732
		c-3.012,3.938-6.145,6.426-9.574,7.649c-0.43,0.137-0.844,0.32-1.286,0.414c0.344-6.41,0.43-12.91,0.172-19.492
		c-0.824-22.855-3.691-43.972-8.473-63.347c1.782-0.481,3.649-0.742,5.473-0.828c6.258-0.262,12.211,2.305,18.035,7.734
		C485.026,211.158,484.636,249.354,469.687,268.732z M53.102,274.634c0.015,0.742,0.015,1.454,0.031,2.207
		c-3.938-1.012-7.446-3.695-10.821-8.11c-14.949-19.378-15.339-57.574-4.347-67.87c5.824-5.43,11.691-7.996,18.035-7.734
		c1.824,0.086,3.691,0.347,5.473,0.828c-4.778,19.375-7.649,40.492-8.473,63.347C52.77,263.15,52.848,268.92,53.102,274.634z
		 M83.372,258.431c0.738-20.027,3.214-40.102,8.171-59.222v-0.043v-0.042c1.692-6.691,3.734-13.254,6.082-19.684
		c17.16-46.706,51.886-85.027,116.163-98.667c27.79-5.894,56.633-5.894,84.422,0c64.277,13.64,99.003,51.961,116.163,98.667
		c1.914,5.172,3.606,10.473,5.043,15.86c1.477,5.171,2.734,10.43,3.778,15.773c3.171,15.469,4.824,31.414,5.434,47.359
		c0.042,1.566,0.086,3.172,0.086,4.738c0.043,2.39,0.043,4.734-0.043,7.039c0,0.043,0,0.043,0,0.043
		c-0.262,9.863-1.347,19.335-3.172,28.37c-17.335,87.902-101.933,137.695-169.323,137.695h-0.352
		c-67.39,0-151.988-49.793-169.323-137.695c-0.305-1.343-0.563-2.734-0.782-4.082c0-0.043,0-0.043,0-0.043
		C83.762,283.068,82.895,271.033,83.372,258.431z"></path>
	<path class="st0" d="M236.45,290.802c2.996,0,5.648-2.043,6.343-5.039c1.477-6.258,6.992-10.602,13.426-10.602
		c5.997,0,11.297,3.867,13.122,9.602c1.086,3.434,4.734,5.344,8.168,4.258c3.434-1.086,5.343-4.777,4.258-8.21
		c-3.562-11.168-13.817-18.684-25.547-18.684c-12.515,0-23.246,8.516-26.113,20.68c-0.828,3.477,1.344,6.996,4.863,7.824
		C235.492,290.759,235.969,290.802,236.45,290.802z"></path>
	<path class="st0" d="M217.813,341.205h-0.238l0,0h-0.156c0,8.039,6.515,14.511,14.511,14.511h48.141c4,0,7.606-1.605,10.21-4.258
		c2.516-2.473,4.043-5.859,4.199-9.648c0.012-0.153,0.055-0.297,0.059-0.446h-0.016c0-0.054,0.016-0.106,0.016-0.16H217.813z"></path>
	<path class="st0" d="M191.172,185.654c22.094,0,44.41-12.156,61.211-24.211c3.706-2.621,7.266-5.25,10.484-7.801
		c-2.344,11.078-5.695,20.106-5.782,20.282c-1.129,3.082-0.434,6.515,1.782,8.949c2.215,2.391,5.606,3.348,8.778,2.434
		c24.289-6.953,43.797-19.726,56.398-36.976c2.825-3.91,2-9.344-1.867-12.164c-3.289-2.402-7.64-2.024-10.636,0.504
		c-0.031,0.023-0.059,0.05-0.086,0.078c-0.496,0.426-1.042,0.774-1.445,1.328c-6.227,8.547-14.825,15.73-25.129,21.438
		c-2.043,1.098-4.051,2.219-6.254,3.195c2.289-9.234,4.355-20.812,3.836-31.281c-0.129-3.477-2.347-6.52-5.606-7.734
		c-3.258-1.215-6.953-0.39-9.34,2.129c-0.277,0.278-16.234,16.82-36.816,29.168c-0.465,0.274-0.918,0.558-1.39,0.828
		c-0.301,0.176-0.614,0.344-0.918,0.519c-4.398,2.485-8.98,4.75-13.652,6.598c16.094-22.606,22.578-44.633,22.926-45.848
		c1.348-4.606-1.305-9.426-5.91-10.73c-1.773-0.515-3.507-0.297-5.125,0.242c-0.035,0.011-0.07,0.023-0.109,0.035
		c-0.844,0.293-1.602,0.683-2.317,1.218c-0.012,0.008-0.019,0.016-0.031,0.023c-1.442,1.09-2.645,2.52-3.191,4.391
		c-0.086,0.347-10.039,34.105-35.762,58.351c-2.606,2.477-3.434,6.258-2.129,9.558C184.394,183.482,187.61,185.654,191.172,185.654z
		"></path>
	<path class="st0" d="M148.114,330.037c10.125,0,18.336-6.992,18.336-15.598c0-8.602-8.211-15.554-18.336-15.554
		c-10.168,0-18.379,6.953-18.379,15.554C129.734,323.045,137.946,330.037,148.114,330.037z"></path>
	<path class="st0" d="M363.886,330.037c10.168,0,18.379-6.992,18.379-15.598c0-8.602-8.211-15.554-18.379-15.554
		c-10.125,0-18.379,6.953-18.379,15.554C345.507,323.045,353.762,330.037,363.886,330.037z"></path>
	<path class="st0" d="M177.527,270.599c1.566,0.477,3.219,0.738,4.825,0.738c3.953,0,7.91-1.39,11.602-4.086
		c4.781-3.52,8.472-8.95,10.386-15.25c1.91-6.343,1.824-12.906-0.218-18.465c-2.172-6.039-6.387-10.254-11.774-11.906
		c-10.734-3.214-22.77,5.126-26.813,18.641c-1.953,6.301-1.867,12.859,0.176,18.465C167.926,264.775,172.098,268.99,177.527,270.599
		z M189.61,241.529c-1.262,3.305-4.39,5.172-6.953,4.172c-2.606-1-3.649-4.473-2.391-7.734c1.219-3.301,4.348-5.168,6.954-4.214
		C189.782,234.752,190.867,238.228,189.61,241.529z"></path>
	<path class="st0" d="M320.351,221.197c-10.691,3.215-16.297,16.074-12.515,28.676c1.781,5.953,5.434,10.992,10.21,14.207
		c3.434,2.305,7.215,3.519,10.993,3.519c1.695,0,3.434-0.258,5.129-0.781c10.687-3.215,16.293-16.078,12.511-28.676
		c-1.824-5.953-5.43-10.992-10.21-14.211C331.43,220.545,325.695,219.545,320.351,221.197z M326.738,241.529
		c-1.262,3.305-4.391,5.172-6.954,4.172c-2.606-1-3.695-4.473-2.434-7.734c1.262-3.301,4.391-5.168,6.954-4.214
		C326.91,234.752,327.996,238.228,326.738,241.529z"></path>
</g>
</svg>
