<svg id="Capa_1" enable-background="new 0 0 512 512" height="512" viewBox="0 0 512 512" width="512" xmlns="http://www.w3.org/2000/svg"><g><path d="m170.5 30h85.5l10.002-15-10.002-15h-85.5c-19.3 0-35 15.7-35 35v67c0 8.28 6.72 15 15 15h105.5v-30h-90.5v-52c0-2.76 2.24-5 5-5z" fill="#333e73"/><path d="m341.5 0h-85.5v30h85.5c2.76 0 5 2.24 5 5v52h-90.5v30h105.5c8.28 0 15-6.72 15-15v-67c0-19.3-15.7-35-35-35z" fill="#1f2859"/><path d="m256 176.5 28.004 147.4-28.004 188.1h-221c-19.3 0-35-15.7-35-35v-285.5c0-8.28 6.72-15 15-15z" fill="#333e73"/><path d="m512 191.5v285.5c0 19.3-15.7 35-35 35h-221v-335.5h241c8.28 0 15 6.72 15 15z" fill="#1f2859"/><path d="m256 87 36 100-36 156.33c-1.85 0-3.71-.34-5.47-1.03l-41.4-16.2-199.6-78.13c-5.75-2.25-9.53-7.8-9.53-13.97v-112c0-19.3 15.7-35 35-35z" fill="#4d578c"/><path d="m512 122v112c0 6.17-3.78 11.72-9.53 13.97l-199.6 78.13-41.4 16.2c-1.76.69-3.62 1.03-5.47 1.03v-256.33h221c19.3 0 35 15.7 35 35z" fill="#333e73"/><path d="m256 266.47 23.435 68.8-23.435 46.06h-21.87c-13.79 0-25-11.21-25-25v-64.86c0-13.79 11.21-25 25-25z" fill="#fc3"/><path d="m302.87 291.47v64.86c0 13.79-11.21 25-25 25h-21.87v-114.86h21.87c13.79 0 25 11.21 25 25z" fill="#fa0"/></g></svg>