<svg height="512pt" viewBox="0 0 512 512" width="512pt" xmlns="http://www.w3.org/2000/svg"><path d="m150 301c0-33.089844-26.910156-60-60-60s-60 26.910156-60 60 26.910156 60 60 60 60-26.910156 60-60zm0 0"/><path d="m316 60c0-33.089844-26.910156-60-60-60s-60 26.910156-60 60 26.910156 60 60 60 60-26.910156 60-60zm0 0"/><path d="m482 301c0-33.089844-26.910156-60-60-60s-60 26.910156-60 60 26.910156 60 60 60 60-26.910156 60-60zm0 0"/><path d="m512 451c0-49.628906-40.371094-90-90-90-25.425781 0-48.3125 10.691406-64.691406 27.699219l-86.308594-51.191407v-66.507812h60c8.289062 0 15-6.710938 15-15v-46c0-49.628906-40.371094-90-90-90s-90 40.371094-90 90v46c0 8.289062 6.710938 15 15 15h60v66.503906l-86.308594 51.195313c-16.378906-17.007813-39.265625-27.699219-64.691406-27.699219-49.628906 0-90 40.371094-90 90v46c0 8.289062 6.710938 15 15 15h150c8.289062 0 15-6.710938 15-15v-46c0-13.402344-3.136719-26.011719-8.414062-37.449219l84.414062-50.058593 84.414062 50.058593c-5.273437 11.4375-8.414062 24.046875-8.414062 37.449219v46c0 8.289062 6.710938 15 15 15h150c8.289062 0 15-6.710938 15-15zm0 0"/></svg>