<?xml version="1.0" standalone="no"?>
<!DOCTYPE svg PUBLIC "-//W3C//DTD SVG 20010904//EN"
 "http://www.w3.org/TR/2001/REC-SVG-20010904/DTD/svg10.dtd">
<svg version="1.0" xmlns="http://www.w3.org/2000/svg"
 width="512.000000pt" height="512.000000pt" viewBox="0 0 512.000000 512.000000"
 preserveAspectRatio="xMidYMid meet">

<g transform="translate(0.000000,512.000000) scale(0.100000,-0.100000)"
fill="#000000" stroke="none">
<path d="M830 5111 c-71 -23 -131 -74 -166 -141 -18 -34 -19 -113 -19 -2410
l0 -2375 22 -40 c49 -92 127 -139 228 -139 104 0 186 50 231 141 18 36 19 84
24 1180 l5 1142 45 24 c25 13 77 43 115 67 271 169 634 216 953 124 172 -50
311 -130 467 -269 119 -106 184 -153 287 -209 186 -101 351 -144 578 -153 263
-10 470 35 690 148 123 63 148 82 171 133 18 39 19 89 19 1045 0 998 0 1005
-21 1048 -26 53 -68 84 -124 91 -36 4 -60 -3 -142 -41 -176 -81 -296 -111
-493 -122 -197 -12 -395 31 -572 122 -95 49 -172 104 -288 207 -203 181 -420
288 -670 332 -121 21 -415 15 -530 -11 -146 -33 -336 -111 -439 -181 -19 -13
-39 -24 -42 -24 -4 0 -9 30 -11 68 -6 106 -52 178 -141 223 -44 23 -137 33
-177 20z"/>
</g>
</svg>
