<?xml version="1.0" standalone="no"?>
<!DOCTYPE svg PUBLIC "-//W3C//DTD SVG 20010904//EN"
 "http://www.w3.org/TR/2001/REC-SVG-20010904/DTD/svg10.dtd">
<svg version="1.0" xmlns="http://www.w3.org/2000/svg"
 width="512.000000pt" height="512.000000pt" viewBox="0 0 512.000000 512.000000"
 preserveAspectRatio="xMidYMid meet">

<g transform="translate(0.000000,512.000000) scale(0.100000,-0.100000)"
fill="#000000" stroke="none">
<path d="M105 5106 c-37 -17 -80 -62 -94 -99 -15 -40 -15 -4854 0 -4894 14
-38 57 -83 96 -99 41 -18 675 -20 720 -3 42 15 92 68 103 109 14 48 14 4832 0
4880 -11 41 -61 94 -103 109 -44 17 -684 14 -722 -3z m665 -2546 l0 -2390
-300 0 -300 0 0 130 0 130 145 0 c142 0 147 1 170 25 37 36 34 86 -6 119 -30
25 -35 26 -170 26 l-139 0 0 85 0 85 99 0 c91 0 102 2 127 24 36 30 39 86 6
119 -20 19 -35 22 -127 25 l-105 4 0 84 0 84 145 0 c142 0 147 1 170 25 15 15
25 36 25 54 0 78 -29 91 -205 91 l-135 0 0 85 0 85 99 0 c91 0 102 2 127 24
39 33 39 89 0 122 -25 22 -36 24 -127 24 l-99 0 0 85 0 85 139 0 c135 0 140 1
170 26 40 33 43 83 6 119 -23 24 -28 25 -170 25 l-145 0 0 85 0 85 90 0 c101
0 135 11 156 52 17 33 11 63 -19 96 -19 20 -29 22 -124 22 l-103 0 0 84 0 84
146 4 c146 3 146 3 170 31 31 36 31 78 0 114 -24 28 -24 28 -170 31 l-146 4 0
84 0 84 103 0 c95 0 105 2 124 23 30 32 36 62 19 95 -21 41 -55 52 -156 52
l-90 0 0 85 0 85 145 0 c142 0 147 1 170 25 37 36 34 86 -6 119 -30 25 -35 26
-170 26 l-139 0 0 85 0 85 99 0 c91 0 102 2 127 24 39 33 39 89 0 122 -25 22
-36 24 -127 24 l-99 0 0 85 0 85 135 0 c176 0 205 13 205 91 0 18 -10 39 -25
54 -23 24 -28 25 -170 25 l-145 0 0 84 0 84 105 4 c92 3 107 6 127 25 33 33
30 89 -6 119 -25 22 -36 24 -127 24 l-99 0 0 85 0 85 139 0 c135 0 140 1 170
26 40 33 43 83 6 119 -23 24 -28 25 -170 25 l-145 0 0 130 0 130 300 0 300 0
0 -2390z"/>
<path d="M2410 5106 c-292 -62 -520 -280 -596 -571 -26 -102 -25 -275 4 -378
39 -136 136 -299 218 -365 19 -15 34 -30 34 -34 0 -5 -65 -8 -146 -8 -168 0
-252 -15 -362 -66 -230 -105 -386 -300 -436 -546 -23 -112 -23 -855 -1 -943
70 -268 383 -398 623 -259 l42 25 0 -779 c0 -482 4 -800 10 -832 15 -80 53
-154 109 -213 167 -177 430 -182 607 -13 l44 42 49 -47 c242 -233 648 -101
711 231 6 32 10 350 10 832 l0 779 43 -25 c194 -112 446 -52 567 136 70 107
72 127 68 618 -5 486 -5 485 -79 636 -76 155 -194 271 -354 349 -123 59 -202
75 -379 75 -81 0 -146 2 -146 5 0 3 16 19 35 36 87 77 179 231 217 366 28 102
30 275 4 378 -69 266 -267 473 -531 555 -90 28 -271 36 -365 16z m275 -171
c202 -42 376 -200 442 -400 33 -102 37 -247 9 -340 -50 -166 -161 -301 -307
-372 -105 -51 -161 -64 -269 -64 -98 0 -160 13 -245 51 -161 72 -278 209 -331
385 -28 93 -24 238 9 340 96 292 392 463 692 400z m705 -1370 c78 -21 188 -78
248 -131 69 -60 143 -174 173 -265 24 -74 24 -75 24 -504 0 -407 -1 -432 -20
-470 -100 -201 -396 -187 -471 22 -10 29 -13 126 -14 415 l0 376 -26 31 c-33
40 -83 43 -119 6 l-25 -24 0 -1309 c0 -1423 2 -1363 -55 -1439 -110 -143 -331
-131 -422 24 l-28 48 -5 613 -5 614 -28 24 c-36 31 -78 31 -114 0 l-28 -24 -5
-614 -5 -613 -28 -47 c-86 -147 -276 -170 -398 -48 -85 85 -79 -19 -79 1462
l0 1309 -25 24 c-36 37 -86 34 -119 -6 l-26 -31 0 -376 c-1 -405 -2 -419 -54
-487 -15 -19 -48 -47 -74 -62 -41 -24 -58 -28 -127 -28 -74 0 -85 3 -132 33
-55 36 -95 87 -113 148 -8 28 -10 160 -8 454 l3 415 27 75 c54 148 158 267
292 335 130 66 94 63 951 64 653 1 789 -2 835 -14z"/>
<path d="M4470 5109 c-19 -6 -46 -19 -61 -30 -30 -21 -425 -495 -458 -550 -28
-45 -28 -119 0 -168 32 -58 80 -85 160 -89 l69 -4 0 -1708 0 -1708 -69 -4
c-80 -4 -128 -31 -160 -89 -28 -49 -28 -123 0 -169 21 -34 360 -450 423 -519
39 -42 99 -70 150 -71 83 0 109 22 342 306 121 146 227 279 236 297 36 67 10
161 -57 213 -30 22 -51 29 -108 33 l-72 6 0 1705 0 1705 72 6 c57 4 78 11 108
33 67 52 93 148 58 213 -36 66 -445 551 -482 571 -46 26 -105 34 -151 21z
m274 -414 l206 -250 -107 -6 c-60 -4 -109 -7 -111 -8 -1 0 -11 -16 -22 -33
-20 -33 -20 -56 -20 -1836 0 -1933 -2 -1845 47 -1868 10 -4 62 -11 115 -14
l98 -5 -206 -250 c-114 -137 -212 -251 -219 -253 -10 -2 -425 487 -425 502 0
3 42 6 94 6 87 0 97 2 125 26 l31 26 0 1828 0 1828 -31 26 c-28 24 -38 26
-125 26 -52 0 -94 2 -94 5 0 15 415 505 425 503 7 -2 105 -115 219 -253z"/>
</g>
</svg>
