<?xml version="1.0" standalone="no"?>
<!DOCTYPE svg PUBLIC "-//W3C//DTD SVG 20010904//EN"
 "http://www.w3.org/TR/2001/REC-SVG-20010904/DTD/svg10.dtd">
<svg version="1.0" xmlns="http://www.w3.org/2000/svg"
 width="512.000000pt" height="512.000000pt" viewBox="0 0 512.000000 512.000000"
 preserveAspectRatio="xMidYMid meet">

<g transform="translate(0.000000,512.000000) scale(0.100000,-0.100000)"
fill="#000000" stroke="none">
<path d="M2394 5106 c-223 -43 -395 -130 -546 -279 -94 -91 -157 -180 -212
-298 -64 -136 -88 -237 -94 -400 -7 -198 28 -349 118 -517 22 -41 39 -76 38
-77 -2 -2 -230 28 -508 66 -278 38 -515 67 -527 64 -12 -3 -32 -15 -43 -27
-18 -20 -20 -35 -20 -180 0 -87 -3 -158 -7 -158 -5 0 -63 7 -130 15 -134 15
-172 10 -192 -28 -8 -16 -12 -204 -14 -672 l-2 -650 -95 -3 c-104 -2 -132 -12
-149 -49 -15 -34 -15 -1062 0 -1096 17 -37 45 -47 149 -49 l95 -3 5 -232 c5
-217 6 -234 25 -253 19 -18 126 -32 1148 -150 l1127 -130 1127 130 c1022 118
1129 132 1148 150 19 19 20 36 25 253 l5 232 95 3 c104 2 132 12 149 49 15 34
15 1062 0 1096 -17 37 -45 47 -149 49 l-95 3 -2 650 c-2 468 -6 656 -14 672
-20 38 -58 43 -192 28 -67 -8 -125 -15 -129 -15 -5 0 -8 71 -8 158 0 145 -2
160 -20 180 -11 12 -31 24 -43 27 -12 3 -249 -26 -527 -64 -278 -38 -506 -68
-508 -66 -1 1 16 36 38 77 90 168 125 319 118 517 -6 163 -30 264 -94 400
-132 281 -373 480 -673 558 -119 31 -310 39 -417 19z m380 -185 c237 -63 437
-226 546 -446 64 -130 80 -194 87 -341 10 -226 -58 -431 -198 -586 l-45 -51
-302 -42 -302 -41 -302 41 -302 42 -45 51 c-90 99 -158 239 -187 384 -20 99
-14 291 11 383 86 310 337 547 655 616 109 24 271 20 384 -10z m-306 -1753 l3
-88 -28 5 c-15 3 -381 46 -813 95 -432 49 -802 93 -822 96 l-38 6 0 102 0 102
848 -116 847 -115 3 -87z m1878 115 c-2 -3 -370 -47 -818 -98 -447 -52 -828
-96 -846 -99 l-33 -5 3 87 3 87 845 115 845 115 3 -99 c1 -54 1 -101 -2 -103z
m-2906 -253 c531 -61 980 -113 998 -116 l32 -5 0 -1365 0 -1365 -32 6 c-18 3
-467 55 -998 115 -531 61 -975 113 -987 115 -23 5 -23 7 -23 184 l0 179 44 6
c24 4 81 25 127 47 111 54 220 161 273 269 115 235 71 499 -114 686 -84 85
-154 123 -317 170 -10 3 -13 131 -13 597 l0 594 23 -3 c12 -2 456 -53 987
-114z m3250 -478 l0 -599 -57 -12 c-96 -21 -189 -76 -273 -160 -124 -125 -174
-245 -174 -416 0 -170 50 -291 174 -416 82 -83 176 -138 275 -160 l55 -12 0
-178 c0 -177 0 -179 -22 -184 -13 -2 -457 -54 -988 -115 -531 -60 -980 -112
-997 -115 l-33 -6 0 1366 c0 751 1 1365 3 1365 1 1 459 54 1017 119 558 66
1016 119 1018 120 1 1 2 -268 2 -597z m-4244 -776 c77 -20 148 -63 205 -123
160 -169 151 -436 -19 -596 -92 -86 -187 -117 -354 -117 l-108 0 0 425 0 425
113 0 c63 0 135 -6 163 -14z m4504 -411 l0 -425 -108 0 c-167 0 -262 31 -354
117 -132 125 -170 322 -94 488 47 104 161 199 275 231 25 6 99 13 164 13 l117
1 0 -425z"/>
<path d="M3615 2725 c-357 -45 -658 -86 -668 -90 -44 -18 -47 -44 -47 -417 0
-264 3 -359 13 -378 28 -55 8 -56 753 36 379 47 702 90 718 96 53 21 56 44 56
416 0 349 -4 393 -40 412 -33 18 -127 9 -785 -75z m655 -345 c0 -191 -3 -252
-12 -255 -17 -6 -1130 -145 -1163 -145 l-25 0 2 253 3 252 560 71 c308 40 577
72 598 73 l37 1 0 -250z"/>
</g>
</svg>
