<?xml version="1.0" standalone="no"?>
<!DOCTYPE svg PUBLIC "-//W3C//DTD SVG 20010904//EN"
 "http://www.w3.org/TR/2001/REC-SVG-20010904/DTD/svg10.dtd">
<svg version="1.0" xmlns="http://www.w3.org/2000/svg"
 width="512.000000pt" height="512.000000pt" viewBox="0 0 512.000000 512.000000"
 preserveAspectRatio="xMidYMid meet">
<metadata>
Created by potrace 1.16, written by Peter Selinger 2001-2019
</metadata>
<g transform="translate(0.000000,512.000000) scale(0.100000,-0.100000)"
fill="#000000" stroke="none">
<path d="M1646 4905 c-194 -54 -359 -220 -411 -415 -11 -41 -15 -117 -15 -292
l0 -238 -363 0 c-292 0 -374 -3 -422 -15 -202 -52 -367 -215 -420 -415 -22
-82 -22 -2818 0 -2900 52 -197 218 -363 415 -415 83 -22 4177 -22 4260 0 197
52 363 218 415 415 22 82 22 2818 0 2900 -53 200 -218 363 -420 415 -48 12
-130 15 -422 15 l-363 0 0 238 c0 175 -4 251 -15 292 -52 197 -218 363 -415
415 -78 21 -1749 20 -1824 0z m1717 -195 c124 -18 228 -90 286 -199 17 -32 31
-62 31 -65 0 -3 -504 -6 -1120 -6 -616 0 -1120 3 -1120 6 0 3 14 33 32 66 56
105 161 180 276 197 82 12 1532 13 1615 1z m337 -610 l0 -140 -366 0 -366 0
-29 -29 c-23 -24 -29 -38 -29 -73 1 -43 9 -60 44 -88 16 -13 132 -16 855 -20
l836 -5 63 -34 c112 -61 184 -163 202 -288 12 -85 12 -296 0 -430 -32 -355
-273 -649 -620 -755 -74 -22 -85 -22 -656 -26 l-582 -3 -4 133 c-4 149 -15
181 -75 242 -60 60 -98 66 -410 66 -167 0 -291 -4 -318 -11 -55 -14 -122 -70
-146 -123 -15 -33 -19 -66 -19 -174 l0 -133 -587 3 c-575 4 -590 4 -661 26
-350 107 -590 398 -622 755 -12 135 -12 345 0 431 19 130 100 239 218 294 l57
27 830 5 c665 4 835 8 853 18 31 18 53 73 46 111 -4 17 -18 42 -32 56 l-25 25
-368 0 -369 0 0 140 0 140 1140 0 1140 0 0 -140z m-872 -1672 c8 -8 12 -48 12
-115 l0 -103 -275 0 -275 0 0 108 c0 60 3 112 7 115 12 13 518 8 531 -5z
m2083 -1680 c-24 -181 -151 -312 -327 -338 -93 -13 -3954 -13 -4047 0 -172 25
-302 155 -327 326 -6 41 -10 395 -10 878 l0 810 70 -77 c140 -151 321 -261
518 -315 l97 -26 596 -4 597 -3 4 -132 c3 -128 5 -134 40 -210 50 -105 130
-184 235 -235 71 -33 87 -37 179 -40 154 -6 252 28 356 126 104 97 146 199
155 374 l6 117 591 3 591 4 99 27 c193 52 375 162 510 308 36 39 67 77 68 83
9 39 7 -1611 -1 -1676z m-2073 1155 c-3 -71 -11 -112 -27 -148 -46 -105 -138
-165 -251 -165 -103 1 -184 48 -238 139 -24 41 -27 58 -31 159 l-3 112 277 0
278 0 -5 -97z"/>
<path d="M2489 3931 c-46 -46 -37 -133 18 -162 29 -16 82 -15 113 1 29 16 51
71 44 109 -16 81 -116 110 -175 52z"/>
</g>
</svg>
